<svg xmlns="http://www.w3.org/2000/svg" viewBox="0 0 1200 750" role="img" aria-label="Ilustração do ecossistema Gestor de Aluguéis: app, landing page e CRM conectados">
  <rect x="0" y="0" width="1200" height="750" rx="20" fill="#f6f8fb"/>
  <rect x="0" y="0" width="1200" height="750" rx="20" fill="none" stroke="#e4e9f0" stroke-width="2"/>
  <rect x="0" y="0" width="1200" height="56" rx="20" fill="#ffffff"/>
  <rect x="0" y="36" width="1200" height="20" fill="#ffffff"/>
  <circle cx="34" cy="28" r="7" fill="#dc2626"/>
  <circle cx="58" cy="28" r="7" fill="#d97706"/>
  <circle cx="82" cy="28" r="7" fill="#16a34a"/>
  <rect x="120" y="18" width="280" height="20" rx="10" fill="#eef2f7"/>
  <text x="140" y="33" font-family="monospace" font-size="12" fill="#5b6675">portal-comercial/pipeline</text>
  <line x1="0" y1="56" x2="1200" y2="56" stroke="#e4e9f0" stroke-width="2"/>

  <g font-family="Arial, sans-serif" font-size="12" fill="#5b6675">
    <rect x="56" y="86" width="150" height="34" rx="17" fill="#ffffff" stroke="#e4e9f0"/>
    <circle cx="76" cy="103" r="6" fill="#94a3b8"/>
    <text x="92" y="107">Landing page</text>

    <path d="M206 103 h60" stroke="#94a3b8" stroke-width="2" stroke-dasharray="4 4" marker-end="url(#a2)"/>

    <rect x="270" y="86" width="150" height="34" rx="17" fill="#ffffff" stroke="#e4e9f0"/>
    <circle cx="290" cy="103" r="6" fill="#2563eb"/>
    <text x="306" y="107">Leads</text>

    <path d="M420 103 h60" stroke="#94a3b8" stroke-width="2" stroke-dasharray="4 4" marker-end="url(#a2)"/>

    <rect x="484" y="86" width="180" height="34" rx="17" fill="#eaf1ff" stroke="#bfd3f5"/>
    <circle cx="504" cy="103" r="6" fill="#2563eb"/>
    <text x="520" y="107" fill="#2563eb" font-weight="600">CRM · Portal Comercial</text>

    <path d="M664 103 h60" stroke="#94a3b8" stroke-width="2" stroke-dasharray="4 4" marker-end="url(#a2)"/>

    <rect x="728" y="86" width="150" height="34" rx="17" fill="#ffffff" stroke="#e4e9f0"/>
    <circle cx="748" cy="103" r="6" fill="#16a34a"/>
    <text x="764" y="107">App do locador</text>
  </g>

  <defs>
    <marker id="a2" markerWidth="8" markerHeight="8" refX="4" refY="4" orient="auto">
      <path d="M0,0 L8,4 L0,8 z" fill="#94a3b8"/>
    </marker>
  </defs>

  <text x="56" y="168" font-family="Arial, sans-serif" font-size="20" font-weight="700" fill="#0f172a">Pipeline de vendas</text>

  <g font-family="Arial, sans-serif" font-size="13" font-weight="700" fill="#5b6675">
    <text x="80" y="200">Novo lead</text>
    <text x="360" y="200">Apresentação enviada</text>
    <text x="640" y="200">Negociação</text>
    <text x="920" y="200">Fechado</text>
  </g>

  <g stroke="#e4e9f0" stroke-width="1">
    <line x1="304" y1="180" x2="304" y2="700"/>
    <line x1="584" y1="180" x2="584" y2="700"/>
    <line x1="864" y1="180" x2="864" y2="700"/>
  </g>

  <g font-family="Arial, sans-serif">
    <rect x="56" y="220" width="224" height="86" rx="10" fill="#ffffff" stroke="#e4e9f0" stroke-width="2"/>
    <circle cx="80" cy="248" r="12" fill="#dbeafe"/>
    <rect x="100" y="242" width="130" height="10" rx="4" fill="#0f172a" opacity="0.8"/>
    <rect x="100" y="258" width="90" height="8" rx="4" fill="#94a3b8"/>
    <rect x="72" y="278" width="60" height="18" rx="9" fill="#eef2f7"/>

    <rect x="56" y="322" width="224" height="86" rx="10" fill="#ffffff" stroke="#e4e9f0" stroke-width="2"/>
    <circle cx="80" cy="350" r="12" fill="#fef3c7"/>
    <rect x="100" y="344" width="130" height="10" rx="4" fill="#0f172a" opacity="0.8"/>
    <rect x="100" y="360" width="90" height="8" rx="4" fill="#94a3b8"/>

    <rect x="336" y="220" width="224" height="86" rx="10" fill="#ffffff" stroke="#e4e9f0" stroke-width="2"/>
    <circle cx="360" cy="248" r="12" fill="#e0e7ff"/>
    <rect x="380" y="242" width="130" height="10" rx="4" fill="#0f172a" opacity="0.8"/>
    <rect x="380" y="258" width="90" height="8" rx="4" fill="#94a3b8"/>

    <rect x="336" y="322" width="224" height="86" rx="10" fill="#ffffff" stroke="#e4e9f0" stroke-width="2"/>
    <circle cx="360" cy="350" r="12" fill="#dbeafe"/>
    <rect x="380" y="344" width="130" height="10" rx="4" fill="#0f172a" opacity="0.8"/>
    <rect x="380" y="360" width="90" height="8" rx="4" fill="#94a3b8"/>

    <rect x="616" y="220" width="224" height="86" rx="10" fill="#ffffff" stroke="#bfd3f5" stroke-width="2"/>
    <circle cx="640" cy="248" r="12" fill="#2563eb"/>
    <rect x="660" y="242" width="130" height="10" rx="4" fill="#0f172a" opacity="0.8"/>
    <rect x="660" y="258" width="90" height="8" rx="4" fill="#94a3b8"/>
    <rect x="632" y="278" width="80" height="18" rx="9" fill="#dbeafe"/>

    <rect x="896" y="220" width="224" height="86" rx="10" fill="#f0fdf4" stroke="#bbf7d0" stroke-width="2"/>
    <circle cx="920" cy="248" r="12" fill="#16a34a"/>
    <rect x="940" y="242" width="130" height="10" rx="4" fill="#0f172a" opacity="0.8"/>
    <rect x="940" y="258" width="90" height="8" rx="4" fill="#94a3b8"/>
    <text x="912" y="290" font-size="11" fill="#16a34a">ganho ✓</text>
  </g>
</svg>
